<svg xmlns="http://www.w3.org/2000/svg" width="512" height="512" viewBox="0 0 512 512">
  <defs>
    <linearGradient id="g" x1="0" y1="0" x2="1" y2="1">
      <stop offset="0" stop-color="#f7e7a6"/>
      <stop offset="0.35" stop-color="#d6b45a"/>
      <stop offset="0.7" stop-color="#f5d77b"/>
      <stop offset="1" stop-color="#b8892d"/>
    </linearGradient>
    <radialGradient id="glow" cx="50%" cy="35%" r="60%">
      <stop offset="0" stop-color="#ffffff" stop-opacity="0.35"/>
      <stop offset="1" stop-color="#ffffff" stop-opacity="0"/>
    </radialGradient>
    <filter id="soft" x="-20%" y="-20%" width="140%" height="140%">
      <feGaussianBlur stdDeviation="6"/>
    </filter>
  </defs>
  <rect x="34" y="34" width="444" height="444" rx="96" fill="#0b0d12"/>
  <rect x="34" y="34" width="444" height="444" rx="96" fill="url(#glow)"/>
  <path d="M120 168c0-40 34-72 76-72h120c42 0 76 32 76 72v176c0 40-34 72-76 72H196c-42 0-76-32-76-72V168zm76-16c-18 0-32 14-32 32v144c0 18 14 32 32 32h120c18 0 32-14 32-32V184c0-18-14-32-32-32H196z" fill="url(#g)"/>
  <path d="M190 210h132v30H190v-30zm0 62h132v30H190v-30z" fill="url(#g)" opacity="0.95"/>
  <circle cx="256" cy="380" r="18" fill="url(#g)"/>
  <path d="M96 160c20-62 72-106 160-120 88 14 140 58 160 120" fill="none" stroke="#ffd77a" stroke-opacity="0.22" stroke-width="22" filter="url(#soft)"/>
</svg>
