<svg xmlns="http://www.w3.org/2000/svg" width="512" height="512" viewBox="0 0 512 512">
  <defs>
    <radialGradient id="g1" cx="30%" cy="25%" r="70%">
      <stop offset="0" stop-color="#FFDF88" stop-opacity="1"/>
      <stop offset="0.45" stop-color="#D8B25A" stop-opacity="0.65"/>
      <stop offset="1" stop-color="#0B0C10" stop-opacity="0"/>
    </radialGradient>
    <linearGradient id="g2" x1="0" y1="0" x2="1" y2="1">
      <stop offset="0" stop-color="#FFDF88" stop-opacity="0.28"/>
      <stop offset="1" stop-color="#0B0C10" stop-opacity="0"/>
    </linearGradient>
    <filter id="glow" x="-50%" y="-50%" width="200%" height="200%">
      <feGaussianBlur stdDeviation="10" result="b"/>
      <feColorMatrix in="b" type="matrix" values="
        1 0 0 0 0
        0 0.9 0 0 0
        0 0 0.4 0 0
        0 0 0 0.65 0"/>
      <feMerge>
        <feMergeNode/>
        <feMergeNode in="SourceGraphic"/>
      </feMerge>
    </filter>
  </defs>
  <rect width="512" height="512" rx="120" fill="#0B0C10"/>
  <circle cx="210" cy="160" r="210" fill="url(#g1)"/>
  <path d="M120 360c40-78 104-190 232-218 44-10 86-6 120 2-30 62-74 154-110 196-56 66-124 96-242 20z"
        fill="url(#g2)"/>
  <g filter="url(#glow)">
    <path d="M256 112l38 78 86 12-62 60 14 86-76-40-76 40 14-86-62-60 86-12z"
          fill="#D8B25A" opacity="0.95"/>
  </g>
  <text x="256" y="428" text-anchor="middle" font-family="ui-monospace, SFMono-Regular, Menlo, Monaco, Consolas, 'Liberation Mono', 'Courier New', monospace"
        font-size="46" font-weight="800" fill="#F4F0E6" opacity="0.92">AI</text>
</svg>
